# xmcd
#
# Track frame offsets:
#	150
#	4691
#	9259
#	13807
#	18422
#	23058
#	27660
#	32228
#	36751
#	41211
#	45822
#	50398
#	54966
#	59528
#	64184
#	68735
#	73324
#	77954
#	82516
#	87057
#	91693
#	96194
#	100802
#	105394
#	110002
#
# Disc length: 1528 seconds
#
# Revision: 2
# Processed by: cddbd v1.5PL3 Copyright (c) Steve Scherf et al.
# Submitted via: dBpowerAMP V4.0
#
DISCID=3105f619
DTITLE=DR. K.P. Yohannan - GOSPEL FOR ASIA MINUITE Vol. 1
DYEAR=2004
DGENRE=Gospel
TTITLE0=standing on the bridge
TTITLE1=radio for the bagri
TTITLE2=parents put them in jail
TTITLE3=from pagan priest to servant of christ
TTITLE4=the tears of a temple priest
TTITLE5=muslim leader and the rock
TTITLE6=house to house in bhutan
TTITLE7=in the home of the buddhist priest
TTITLE8=freedom from darkness
TTITLE9=persecuters change
TTITLE10=from islam to jesus
TTITLE11=the ultimate sacrifice
TTITLE12=why are you a girl?
TTITLE13=van team dedication
TTITLE14=three hundred stone houses
TTITLE15=orphan becomes a missionary
TTITLE16=little girl in bhutan
TTITLE17=not one christian
TTITLE18=healing from tuberculosis
TTITLE19=muslim widow comes to christ
TTITLE20=dalit schools
TTITLE21=little girl and the tract
TTITLE22=breaking tradition
TTITLE23=surviving birth
TTITLE24=a bible,a healing,a missionary
EXTD=please support this ministry.Help to sponsor a missionary today!
EXTT0=
EXTT1=
EXTT2=
EXTT3=
EXTT4=
EXTT5=
EXTT6=
EXTT7=
EXTT8=
EXTT9=
EXTT10=
EXTT11=
EXTT12=
EXTT13=
EXTT14=
EXTT15=
EXTT16=
EXTT17=
EXTT18=
EXTT19=
EXTT20=
EXTT21=
EXTT22=
EXTT23=
EXTT24=
PLAYORDER=
